# xmcd
#
# Track frame offsets: 
#        150
#        24324
#        51006
#        79452
#        93441
#        145504
#        184208
#        206500
#        231010
#        244831
#        268730
#        308573
#        331605
#
# Disc length: 4708 seconds
#
# Revision: 0
# Processed by: cddbd v1.5.2PL0 Copyright (c) Steve Scherf et al.
# Submitted via: ExactAudioCopy v1.0b3
#
DISCID=a612620d
DTITLE=Eric Quincy Tate - 37 - Live
DYEAR=2007
DGENRE=Southern Rock
TTITLE0=Brown Sugar
TTITLE1=Hit The Road Jack
TTITLE2=I'm Gonna Move
TTITLE3=Chattahoochee Coochee Man
TTITLE4=Things (I Think I Think I'll Find)
TTITLE5=Hush Hush
TTITLE6=Cherry Pie
TTITLE7=The Thrill Is Gone
TTITLE8=Hanky Tonk Man
TTITLE9=No Rollin' Boogie
TTITLE10=Born Under A Bad Sign
TTITLE11=The Bream Are Still Bitibg In Ferriday
TTITLE12=Try A Little Harder
EXTD=
EXTT0=
EXTT1=
EXTT2=
EXTT3=
EXTT4=
EXTT5=
EXTT6=
EXTT7=
EXTT8=
EXTT9=
EXTT10=
EXTT11=
EXTT12=
PLAYORDER=
